<?xml version="1.0" encoding="UTF-8"?>
<svg width="114px" height="100px" viewBox="0 0 114 100" version="1.1" xmlns="http://www.w3.org/2000/svg" xmlns:xlink="http://www.w3.org/1999/xlink">
    <!-- Generator: Sketch 53.2 (72643) - https://sketchapp.com -->
    <title>research</title>
    <desc>Created with Sketch.</desc>
    <g id="Landing-Page" stroke="none" stroke-width="1" fill="none" fill-rule="evenodd">
        <g id="Desktop-HD" transform="translate(-290.000000, -1673.000000)" fill="#000000" fill-rule="nonzero">
            <g id="Results-Section" transform="translate(290.000000, 1673.000000)">
                <g id="research">
                    <path d="M40.8966648,47.571182 C47.0686535,47.571182 53.2408684,45.2576262 57.9395436,40.6300688 C62.4925165,36.1465095 65,30.1848513 65,23.8435818 C65,17.5023124 62.4925165,11.5406542 57.9395436,7.056872 C48.5419669,-2.19757417 33.2513627,-2.19757417 23.853786,7.056872 C19.3008131,11.5406542 16.7933296,17.5023124 16.7933296,23.8435818 C16.7933296,26.8962986 17.3745553,29.8609669 18.4851966,32.6152106 L2.79753079,48.0644761 C0.99344583,49.841048 0,52.2031976 0,54.7158098 C0,57.228199 0.99344583,59.5903486 2.79730454,61.3669205 C4.65862972,63.1996651 7.10321687,64.1160374 9.54803027,64.1160374 C11.9930699,64.1160374 14.4376571,63.1996651 16.2989822,61.3666976 L31.9988653,45.9051722 C34.8493376,47.0156968 37.8728881,47.571182 40.8966648,47.571182 Z M27.5642573,10.55933 C31.26888,6.85261299 36.1338194,5 41,5 C45.8651876,5 50.7318647,6.85360702 54.4357427,10.55933 C58.0239364,14.1494977 60,18.9230514 60,24.0000311 C60,29.0770107 58.0239364,33.8503159 54.4357427,37.4404836 C47.0269938,44.8534206 34.9730062,44.8529236 27.5642573,37.4404836 C23.9760636,33.8503159 22,29.0770107 22,24.0000311 C22,18.9230514 23.9760636,14.1494977 27.5642573,10.55933 Z M12.2366715,59.0743251 C10.702839,60.135466 7.23636562,59.5714579 5.97714157,58.4826034 C4.71791753,57.3937488 3.94962738,54.3741183 5.50885007,52.0867496 C6.54833187,50.5618372 11.7418839,45.2798571 21.0895063,36.2408092 C21.7622963,36.9711048 21.8373164,38.4504085 23.7449626,40.583618 C25.6526087,42.7168274 27.4456312,43.707973 28.2743565,44.2752082 C18.6051215,53.4338588 13.2592265,58.3668977 12.2366715,59.0743251 Z" id="Shape"></path>
                    <path d="M110.513672,93.9243299 L107.027344,93.9243299 L107.026001,25.6502622 C107.026001,21.5183807 103.658208,18.1568344 99.518542,18.1568344 L90.0671065,18.1568344 C85.9274404,18.1568344 82.5598799,21.5183807 82.5598799,25.6502622 L82.5612227,93.9243299 L77.4479414,93.9243299 L77.5225539,58.3703847 C77.5225539,54.2385032 74.1547609,50.8769568 70.0150949,50.8769568 L60.5636593,50.8769568 C56.4239933,50.8769568 53.0562003,54.2385032 53.0562003,58.3703847 L52.9815879,93.9243299 L47.8690039,93.9243299 L47.9436164,72.2818795 C47.9436164,68.1499981 44.5758234,64.7884517 40.4361574,64.7884517 L30.9847218,64.7884517 C26.8450558,64.7884517 23.4774953,68.1499981 23.4774953,72.2818795 L23.4028828,93.9243299 L19.9165547,93.9243299 C17.9911719,93.9243299 16.8428185,94.9520793 16.8428185,96.8738576 C16.8428185,98.795636 17.9911719,99.5616042 19.9165547,99.5616042 L110.513672,99.5616042 C112.439055,99.5616042 113.444552,98.795636 113.444552,96.8738576 C113.444552,94.9520793 112.439055,93.9243299 110.513672,93.9243299 Z M27.3757715,93.9243299 L27.3757715,70.9227389 C27.3757715,70.372117 27.7401951,69.9243299 28.1887437,69.9243299 L42.5624458,69.9243299 C43.0109944,69.9243299 43.3757715,70.372117 43.3757715,70.9227389 L43.3757715,93.9243299 L27.3757715,93.9243299 Z M57.4755176,93.9243299 L57.4755176,57.6628151 C57.4755176,57.255541 57.8402866,56.9243299 58.2888253,56.9243299 L72.6622099,56.9243299 C73.1107485,56.9243299 73.4755176,57.255541 73.4755176,57.6628151 L73.4755176,93.9243299 L57.4755176,93.9243299 Z M87.0546875,93.9243299 L87.0546875,23.5063137 C87.0546875,23.18535 87.4191111,22.9243299 87.8676597,22.9243299 L102.241362,22.9243299 C102.68991,22.9243299 103.054688,23.18535 103.054688,23.5063137 L103.054688,93.9243299 L87.0546875,93.9243299 Z" id="Shape"></path>
                </g>
            </g>
        </g>
    </g>
</svg>