<?xml version="1.0" encoding="UTF-8"?>
<svg width="83px" height="99px" viewBox="0 0 83 99" version="1.1" xmlns="http://www.w3.org/2000/svg" xmlns:xlink="http://www.w3.org/1999/xlink">
    <!-- Generator: Sketch 53.2 (72643) - https://sketchapp.com -->
    <title>results</title>
    <desc>Created with Sketch.</desc>
    <g id="Landing-Page" stroke="none" stroke-width="1" fill="none" fill-rule="evenodd">
        <g id="Desktop-HD" transform="translate(-1084.000000, -1674.000000)" fill="#000000" fill-rule="nonzero">
            <g id="Results-Section" transform="translate(290.000000, 1673.000000)">
                <g id="results" transform="translate(793.747423, 1.000000)">
                    <path d="M63.4885838,4.30595763 L63.4885838,3.12742231 C63.4885838,0.49277497 61.3539117,0.0362745396 58.7111584,0.0362745396 C50.6796635,-0.0120915132 45.0268032,-0.0120915132 41.7525773,0.0362745396 C39.051623,0.0761723675 33.3987626,0.0773887328 24.7939963,0.0399236357 C22.1548982,0.0399236357 20.0202261,0.496424066 20.0202261,3.13107141 L20.0202261,4.30595763 L7.99441904,4.30595763 C3.72141953,4.30595763 0.25257732,7.76530069 0.25257732,12.031094 L0.25257732,91.2712146 C0.25257732,95.5406569 3.71776427,99 7.99441904,99 L75.5143909,99 C79.7910456,99 83.2525773,95.5406569 83.2525773,91.2712146 L83.2525773,12.031094 C83.2525773,7.76530069 79.7837351,4.30595763 75.5143909,4.30595763 L63.4885838,4.30595763 Z M74.3399261,93.6533445 L10.2534692,93.6533445 C7.84968259,93.6533445 5.90130857,91.7363507 5.90130857,89.3673828 L5.90130857,13.6734032 C5.90130857,11.3083317 7.84968259,9.39133788 10.2534692,9.39133788 L20.4391099,9.39133788 C20.4391099,11.7174462 21.834042,11.5788857 24.1982275,11.5788857 L58.885017,11.5788857 C61.2531627,11.5788857 63.6916169,11.7174462 63.6916169,9.39133788 L74.3438862,9.39133788 C76.7437128,9.39133788 78.6960469,11.3044353 78.6960469,13.6734032 C78.7980909,62.2624924 78.7980909,87.4938189 78.6960469,89.3673828 C78.542981,92.1777286 76.7437128,93.6533445 74.3399261,93.6533445 Z" id="Shape"></path>
                    <path d="M38.4046331,55.3220458 L32.8604652,49.8477698 C32.3192477,49.3159502 31.3328339,48.3569702 30.5648901,48.3569702 C30.0529276,48.3569702 29.1482616,49.0283325 27.8508921,50.3710572 C27.4688421,50.6028299 26.7209178,51.6864895 27.8508921,52.7968425 L31.1383314,56.1561157 C31.6905195,56.695122 37.6257188,63.014349 38.4046331,62.9999755 C39.1872044,62.9891954 39.9332069,62.669385 40.4707675,62.1088184 L55.2884664,45.9218013 C56.3855289,44.7827012 56.5549159,44.3394587 55.7525639,43.6718407 C54.2290553,41.8763542 53.2101008,40.9857977 52.6957004,41.0001712 C51.9314135,41.0217315 51.0978926,42.0452625 50.5676458,42.5914556 L38.4046331,55.3220458 Z" id="Path"></path>
                    <path d="M41.2508684,23 C26.3623311,23 14.2525773,35.1122772 14.2525773,50.0034138 C14.2525773,64.884309 26.3623311,77 41.2508684,77 C56.1359877,77 68.2525773,64.884309 68.2525773,50.0034138 C68.2525773,35.1122772 56.1428235,23 41.2508684,23 Z M41.4815171,71.2307692 C29.9012401,71.2307692 20.4833466,61.8130081 20.4833466,50.2325958 C20.4833466,38.6521835 29.9012401,29.2307692 41.4815171,29.2307692 C53.0581353,29.2307692 62.4833466,38.6485304 62.4833466,50.2325958 C62.4833466,61.8093549 53.0581353,71.2307692 41.4815171,71.2307692 Z" id="Shape"></path>
                </g>
            </g>
        </g>
    </g>
</svg>