<?xml version="1.0" encoding="UTF-8"?>
<svg width="95px" height="100px" viewBox="0 0 95 100" version="1.1" xmlns="http://www.w3.org/2000/svg" xmlns:xlink="http://www.w3.org/1999/xlink">
    <!-- Generator: Sketch 53.2 (72643) - https://sketchapp.com -->
    <title>spread</title>
    <desc>Created with Sketch.</desc>
    <g id="Landing-Page" stroke="none" stroke-width="1" fill="none" fill-rule="evenodd">
        <g id="Desktop-HD" transform="translate(-685.000000, -1670.000000)" fill="#000000" fill-rule="nonzero">
            <g id="Advocate-Section" transform="translate(579.000000, 1670.000000)">
                <g id="spread" transform="translate(107.000000, 0.000000)">
                    <path d="M54.8671048,4.09887566 L54.260086,7.34933036 C63.5600612,9.11789021 72.020916,13.8944692 78.3399471,20.943287 L80.8039848,18.7375992 C73.9971892,11.1462467 64.8838459,6.00260417 54.8671048,4.09887566 Z" id="Path" stroke="#000000"></path>
                    <path d="M37.7254878,4.09887566 C27.8164269,5.98317626 18.7886491,11.0383598 12.0035549,18.5019841 L14.4514716,20.723793 C20.7512814,13.7944362 29.1327712,9.10032242 38.3327133,7.34933036 L37.7254878,4.09887566 Z" id="Path" stroke="#000000"></path>
                    <path d="M5.7514881,35.2736442 L2.63516865,34.1708003 C-0.87838955,44.1590195 -0.87838955,55.0473297 2.63516865,65.0355489 L5.7514881,63.932705 C2.49193948,54.6577381 2.49193948,44.5486111 5.7514881,35.2736442 Z" id="Path" stroke="#000000"></path>
                    <path d="M16.0451802,80.146536 L13.7167245,82.4958664 C20.2724041,89.0141369 28.6381862,93.4085648 37.7254878,95.1074735 L38.3325066,91.8570188 C29.8964534,90.2794312 22.1302497,86.1989501 16.0451802,80.146536 Z" id="Path" stroke="#000000"></path>
                    <path d="M76.8413112,79.8551174 C71.0993304,85.6665427 63.8165509,89.7162285 55.8502811,91.5277778 L56.5833747,94.7523975 C65.1626571,92.802166 73.0057457,88.4408069 79.1889881,82.1821263 L76.8413112,79.8551174 Z" id="Path" stroke="#000000"></path>
                    <path d="M91.021412,37.6012731 L87.8275876,38.4571346 C88.7977431,42.0930473 89.2879878,45.8401538 89.2857143,49.6033813 C89.291708,54.484127 88.4649884,59.3301505 86.8411045,63.9329117 L89.9574239,65.0357556 C93.0615493,56.2055638 93.432333,46.6449653 91.021412,37.6012731 Z" id="Path" stroke="#000000"></path>
                    <path d="M89.286541,23.1481481 C89.2863343,23.1481481 89.285921,23.1481481 89.2857143,23.1481481 L82.6719577,23.1481481 C81.7590526,23.1479415 81.0187252,23.8878555 81.0185185,24.8007606 C81.0185185,24.8009673 81.0185185,24.8013806 81.0185185,24.8015873 L81.0185185,31.4153439 C81.0183118,32.328249 81.7582259,33.0685764 82.671131,33.0687831 C82.6713376,33.0687831 82.671751,33.0687831 82.6719577,33.0687831 L89.2857143,33.0687831 C90.1986194,33.0689897 90.9389468,32.3290757 90.9391534,31.4161706 C90.9391534,31.415964 90.9391534,31.4155506 90.9391534,31.4153439 L90.9391534,24.8015873 C90.9393601,23.8886822 90.1994461,23.1483548 89.286541,23.1481481 Z M87.6322751,29.7619048 L84.3253968,29.7619048 L84.3253968,26.4550265 L87.6322751,26.4550265 L87.6322751,29.7619048 Z" id="Shape"></path>
                    <path d="M49.6040013,2.39605768e-18 C49.6037946,2.39605768e-18 49.6033813,2.39605768e-18 49.6031746,2.39605768e-18 L42.989418,2.39605768e-18 C42.0765129,-0.000206679894 41.3361855,0.739707341 41.3359788,1.65261243 C41.3359788,1.65281911 41.3359788,1.65323247 41.3359788,1.65343915 L41.3359788,8.26719577 C41.3357722,9.18010086 42.0756862,9.92042824 42.9885913,9.92063492 C42.9887979,9.92063492 42.9892113,9.92063492 42.989418,9.92063492 L49.6031746,9.92063492 C50.5160797,9.9208416 51.2564071,9.18092758 51.2566138,8.26802249 C51.2566138,8.26781581 51.2566138,8.26740245 51.2566138,8.26719577 L51.2566138,1.65343915 C51.2568204,0.740534061 50.5169064,0.000206679894 49.6040013,2.39605768e-18 Z M47.9497354,6.61375661 L44.6428571,6.61375661 L44.6428571,3.30687831 L47.9497354,3.30687831 L47.9497354,6.61375661 Z" id="Shape"></path>
                    <path d="M11.5749008,21.494709 C11.5746941,21.494709 11.5742808,21.494709 11.5740741,21.494709 L4.96031746,21.494709 C4.04741237,21.4945023 3.30708499,22.2344163 3.30687831,23.1473214 C3.30687831,23.1475281 3.30687831,23.1479415 3.30687831,23.1481481 L3.30687831,29.7619048 C3.30667163,30.6748099 4.04658565,31.4151372 4.95949074,31.4153439 C4.95969742,31.4153439 4.96011078,31.4153439 4.96031746,31.4153439 L11.5740741,31.4153439 C12.4869792,31.4155506 13.2273065,30.6756366 13.2275132,29.7627315 C13.2275132,29.7625248 13.2275132,29.7621114 13.2275132,29.7619048 L13.2275132,23.1481481 C13.2277199,22.2352431 12.4878059,21.4949157 11.5749008,21.494709 Z M9.92063492,28.1084656 L6.61375661,28.1084656 L6.61375661,24.8015873 L9.92063492,24.8015873 L9.92063492,28.1084656 Z" id="Shape"></path>
                    <path d="M11.5749008,67.7910053 C11.5746941,67.7910053 11.5742808,67.7910053 11.5740741,67.7910053 L4.96031746,67.7910053 C4.04741237,67.7907986 3.30708499,68.5307126 3.30687831,69.4436177 C3.30687831,69.4438244 3.30687831,69.4442378 3.30687831,69.4444444 L3.30687831,76.0582011 C3.30667163,76.9711062 4.04658565,77.7114335 4.95949074,77.7116402 C4.95969742,77.7116402 4.96011078,77.7116402 4.96031746,77.7116402 L11.5740741,77.7116402 C12.4869792,77.7118469 13.2273065,76.9719329 13.2275132,76.0590278 C13.2275132,76.0588211 13.2275132,76.0584077 13.2275132,76.0582011 L13.2275132,69.4444444 C13.2277199,68.5315394 12.4878059,67.791212 11.5749008,67.7910053 Z M9.92063492,74.4047619 L6.61375661,74.4047619 L6.61375661,71.0978836 L9.92063492,71.0978836 L9.92063492,74.4047619 Z" id="Shape"></path>
                    <path d="M49.6040013,89.2857143 C49.6037946,89.2857143 49.6033813,89.2857143 49.6031746,89.2857143 L42.989418,89.2857143 C42.0765129,89.2855076 41.3361855,90.0254216 41.3359788,90.9383267 C41.3359788,90.9385334 41.3359788,90.9389468 41.3359788,90.9391534 L41.3359788,97.5529101 C41.3357722,98.4658151 42.0756862,99.2061425 42.9885913,99.2063492 C42.9887979,99.2063492 42.9892113,99.2063492 42.989418,99.2063492 L49.6031746,99.2063492 C50.5160797,99.2065559 51.2564071,98.4666419 51.2566138,97.5537368 C51.2566138,97.5535301 51.2566138,97.5531167 51.2566138,97.5529101 L51.2566138,90.9391534 C51.2568204,90.0262483 50.5169064,89.285921 49.6040013,89.2857143 Z M47.9497354,95.8994709 L44.6428571,95.8994709 L44.6428571,92.5925926 L47.9497354,92.5925926 L47.9497354,95.8994709 Z" id="Shape"></path>
                    <path d="M87.6331019,67.7910053 C87.6328952,67.7910053 87.6324818,67.7910053 87.6322751,67.7910053 L81.0185185,67.7910053 C80.1056134,67.7907986 79.365286,68.5307126 79.3650794,69.4436177 C79.3650794,69.4438244 79.3650794,69.4442378 79.3650794,69.4444444 L79.3650794,76.0582011 C79.3648727,76.9711062 80.1047867,77.7114335 81.0176918,77.7116402 C81.0178985,77.7116402 81.0183118,77.7116402 81.0185185,77.7116402 L87.6322751,77.7116402 C88.5451802,77.7118469 89.2855076,76.9719329 89.2857143,76.0590278 C89.2857143,76.0588211 89.2857143,76.0584077 89.2857143,76.0582011 L89.2857143,69.4444444 C89.285921,68.5315394 88.5460069,67.791212 87.6331019,67.7910053 Z M85.978836,74.4047619 L82.6719577,74.4047619 L82.6719577,71.0978836 L85.978836,71.0978836 L85.978836,74.4047619 Z" id="Shape"></path>
                    <path d="M46.2962963,16.5343915 C28.0328208,16.5343915 13.2275132,31.3396991 13.2275132,49.6031746 C13.2275132,67.8666501 28.0328208,82.6719577 46.2962963,82.6719577 C64.5510913,82.6512897 79.3444114,67.8579696 79.3650794,49.6031746 C79.3650794,31.3396991 64.5597718,16.5343915 46.2962963,16.5343915 Z M35.7047786,21.4841683 C33.938362,23.7223049 32.5076855,26.2522735 31.4658702,28.9802414 C29.5060627,28.739046 27.6031571,28.4465939 25.7802166,28.0968915 C28.6145365,25.1374421 31.9999163,22.8819444 35.7047786,21.4841683 Z M22.7064247,30.9594081 C24.9773245,31.4442791 27.3647056,31.854332 29.8569776,32.1744792 C28.3156787,37.2747189 27.4875614,42.5905258 27.3990898,47.9497354 L16.6183036,47.9497354 C16.9294995,41.7427249 19.0595789,35.7981978 22.7064247,30.9594081 Z M16.6180969,51.2566138 L27.3988831,51.2566138 C27.4873547,56.6158234 28.3156652,61.931837 29.856771,67.03187 C27.3644989,67.3520172 24.9771179,67.7620701 22.706218,68.2469411 C19.0595654,63.4081515 16.929486,57.4636243 16.6180969,51.2566138 Z M25.7802166,71.1096644 C27.6031571,70.759962 29.5060627,70.4675099 31.4658702,70.2263145 C32.5076855,72.9540757 33.938362,75.484251 35.7047786,77.7223876 C31.9999163,76.3244048 28.6145365,74.0689071 25.7802166,71.1096644 Z M43.7169309,79.1586062 C40.5375338,78.3337467 37.6635624,74.9010003 35.5346809,69.8840526 C38.1871491,69.6420304 40.9255822,69.5006614 43.7169309,69.463459 L43.7169309,79.1586062 Z M43.716931,66.1565807 C40.4013217,66.19833 37.1487426,66.3709077 34.0168428,66.6757606 C32.4259115,61.7098628 31.5628999,56.5079365 31.4587467,51.2566138 L43.716931,51.2566138 L43.716931,66.1565807 Z M43.716931,47.9497354 L31.4587467,47.9497354 C31.5628999,42.6984127 32.4259115,37.4964864 34.0168428,32.5305886 C37.1487426,32.8356481 40.4013217,33.0080192 43.716931,33.0497685 L43.716931,47.9497354 L43.716931,47.9497354 Z M43.7169309,29.7430969 C40.9255822,29.7058945 38.1871491,29.5645255 35.5346809,29.3225033 C37.6635624,24.3055556 40.5375338,20.8728092 43.7169309,20.0477431 L43.7169309,29.7430969 Z M74.122644,47.9497354 L64.0958766,47.9497354 C64.0135928,42.5905258 63.2432151,37.2745122 61.8098958,32.1744792 C64.1278559,31.854332 66.3482612,31.4442791 68.4603321,30.9594081 C71.8519342,35.7981978 73.8330337,41.7427249 74.122644,47.9497354 Z M65.8864503,28.0966849 C64.0635098,28.4463872 62.1606042,28.7388393 60.2007967,28.9800347 C59.1589814,26.2522735 57.7283049,23.7220982 55.9618882,21.4839616 C59.6667505,22.8819444 63.0521304,25.1374421 65.8864503,28.0966849 Z M47.9497354,20.0477431 C51.1291325,20.8726025 54.003104,24.3053489 56.1319854,29.3225033 C53.4795172,29.5645255 50.7410842,29.7058945 47.9497354,29.7430969 L47.9497354,20.0477431 Z M47.9497354,33.0497685 C51.2653447,33.0080192 54.5179238,32.8354415 57.6498236,32.5305886 C59.2407549,37.4964864 60.1037665,42.6984127 60.2079197,47.9497354 L47.9497354,47.9497354 L47.9497354,33.0497685 Z M47.9497354,51.2566138 L60.2079197,51.2566138 C60.1037665,56.5079365 59.2407549,61.7098628 57.6498236,66.6757606 C54.5179238,66.3707011 51.2653447,66.19833 47.9497354,66.1565807 L47.9497354,51.2566138 Z M47.9497354,79.1586062 L47.9497354,69.4632523 C50.7410842,69.5004547 53.4795172,69.6418237 56.1319854,69.8838459 C54.003104,74.9010003 51.1291325,78.3337467 47.9497354,79.1586062 Z M55.9618882,77.7221809 C57.7283049,75.4840443 59.1589814,72.9540757 60.2007967,70.2261078 C62.1606042,70.4673032 64.0635098,70.7597553 65.8864503,71.1094577 C63.0521304,74.0689071 59.6667505,76.3244048 55.9618882,77.7221809 Z M68.9602421,68.2469411 C66.6893423,67.7620701 64.3019612,67.3520172 61.8096892,67.03187 C63.3509881,61.9316303 64.1791054,56.6158234 64.267577,51.2566138 L75.0483632,51.2566138 C74.7371673,57.4636243 72.6070879,63.4081515 68.9602421,68.2469411 Z" id="Shape"></path>
                </g>
            </g>
        </g>
    </g>
</svg>